<svg xmlns="http://www.w3.org/2000/svg" height="30px" viewBox="0 0 24 24" width="30px" fill="#13214e">
  <path d="M18.45 19.38V16.38H15.45V14.38H18.45V11.38H20.45V14.38H23.45V16.38H20.45V19.38H18.45ZM16.95 17.67H13.85L13.27 17.96C12.84 18.17 12.34 17.86 12.34 17.39V9.48C12.34 9.19 12.54 8.94 12.81 8.86L17.85 7.46C18.26 7.35 18.67 7.65 18.66 8.08V9.68S20.32 9.68 20.32 9.68V7.22C20.32 6.37 19.78 5.61 18.97 5.33L12.15 2.96C11.72 2.81 11.26 2.81 10.84 2.96L4.01 5.33C3.2 5.61 2.66 6.37 2.66 7.23V15.11C2.66 15.87 3.09 16.56 3.77 16.9L10.61 20.3C11.17 20.58 11.83 20.58 12.4 20.3L16.96 18.03V17.68ZM10.66 17.39C10.66 17.86 10.16 18.17 9.73 17.96L4.68 15.45C4.46 15.34 4.32 15.12 4.32 14.88V8.07C4.32 7.65 4.72 7.34 5.13 7.45L10.24 8.87C10.52 8.95 10.71 9.2 10.71 9.49L10.66 17.39ZM11.46 7.47L7.21 6.3C7.07 6.26 7.06 6.07 7.2 6.02L11.45 4.52S11.52 4.51 11.55 4.52L15.8 6.02C15.94 6.07 15.93 6.26 15.8 6.3L11.55 7.48S11.5 7.48 11.46 7.47Z"/>
</svg>
