<?xml version="1.0" encoding="iso-8859-1"?>
<!-- Uploaded to: SVG Repo, www.svgrepo.com, Generator: SVG Repo Mixer Tools -->
<!DOCTYPE svg PUBLIC "-//W3C//DTD SVG 1.1//EN" "http://www.w3.org/Graphics/SVG/1.1/DTD/svg11.dtd">
<svg fill="#ffffff" height="30px" width="30px" version="1.1" id="Capa_1" xmlns="http://www.w3.org/2000/svg" xmlns:xlink="http://www.w3.org/1999/xlink" 
	 viewBox="0 0 297 297" xml:space="preserve">
<g>
	<path d="M218.756,92.482c18.287,0,33.171-15.062,33.171-33.578c0-18.515-14.884-33.577-33.171-33.577
		c-18.291,0-33.172,15.062-33.172,33.577C185.584,77.421,200.465,92.482,218.756,92.482z"/>
	<path d="M238.739,126.934c0,15.06,12.251,27.314,27.313,27.314c15.059,0,27.313-12.254,27.313-27.314
		c0-15.062-12.254-27.316-27.313-27.316C250.99,99.617,238.739,111.872,238.739,126.934z"/>
	<path d="M203.484,147.292c1.088,0,2.121-0.474,2.831-1.298c0.71-0.824,1.03-1.918,0.868-2.993
		c-3.201-21.317-21.634-37.713-43.826-37.713c-14.343,0-27.428,6.797-35.646,17.958c-4.464-1.213-9.319-1.257-13.822-0.112
		c-8.232-11.087-21.301-17.846-35.561-17.846c-21.238,0-39.038,15.022-43.331,35.001C15.023,144.582,0,162.38,0,183.624
		c0,24.438,19.882,44.322,44.319,44.322c2.064,0,3.736-1.673,3.736-3.736v-47.029c0-16.481,13.407-29.889,29.888-29.889H203.484z"/>
	<path d="M287.725,167.828H77.987c-5.104,0-9.276,4.173-9.276,9.274v85.294c0,5.103,4.173,9.276,9.276,9.276h209.737
		c5.102,0,9.275-4.173,9.275-9.276v-85.294C297,172.001,292.827,167.828,287.725,167.828z"/>
</g>
</svg>